<svg xmlns="http://www.w3.org/2000/svg" fill-rule="evenodd" stroke-linejoin="round" stroke-miterlimit="2" clip-rule="evenodd" viewBox="0 0 32 32" id="lighting">
  <g fill="#000000" class="color000000 svgShape">
    <path fill="#7986ac" d="M15,28.764c-0,0.927 0.638,1.733 1.54,1.946c0.903,0.214 1.834,-0.222 2.249,-1.052c2.238,-4.476 5.85,-11.7 7.382,-14.764c0.31,-0.62 0.277,-1.356 -0.088,-1.945c-0.364,-0.59 -1.008,-0.949 -1.701,-0.949c-1.74,0 -4.507,0 -6.382,0c-0.552,0 -1,-0.448 -1,-1c0,-0 -0,-7.764 -0,-7.764c0,-0.927 -0.638,-1.733 -1.54,-1.946c-0.903,-0.214 -1.834,0.222 -2.249,1.052c-2.238,4.476 -5.85,11.7 -7.382,14.764c-0.31,0.62 -0.277,1.356 0.088,1.945c0.364,0.59 1.008,0.949 1.701,0.949c1.74,-0 4.507,-0 6.382,-0c0.552,-0 1,0.448 1,1l0,7.764Zm-0,-25.528c0,0 0,7.764 0,7.764c0,1.657 1.343,3 3,3l6.382,-0c-0,0 -7.382,14.764 -7.382,14.764c-0,-0 -0,-7.764 -0,-7.764c-0,-1.657 -1.343,-3 -3,-3l-6.382,0l7.382,-14.764Z" class="color30a2ff svgShape"></path>
  </g>
</svg>
