<svg xmlns="http://www.w3.org/2000/svg" enable-background="new 0 0 24 24" viewBox="0 0 24 24" id="minimize">
  <g id="_icons" fill="#7986ac" class="color000000 svgShape">
    <path d="M9.0874 3.9258C8.5347 3.876 8.0527 4.2842 8.0039 4.834 7.96 5.333 7.9072 5.8311 7.8447 6.3301 7.8413 6.3572 7.8265 6.3796 7.8218 6.4063L4.707 3.293c-.3906-.3906-1.0239-.3906-1.4146 0C2.9023 3.6836 2.9023 4.3164 3.293 4.707l3.1146 3.113C6.3811 7.8246 6.3589 7.8394 6.332 7.8428 5.8247 7.9053 5.3164 7.96 4.8076 8.0039c-.5503.0469-.958.5322-.9102 1.082C3.9424 9.6074 4.3789 10 4.8926 10c.0288 0 .0576-.001.0869-.0039.5332-.0459 1.0669-.1025 1.6001-.1689.7709-.0965 1.4591-.4326 2.0095-.92.0657-.0403.1359-.071.1927-.1279.0568-.0568.0875-.1269.1277-.1925.4874-.5504.8232-1.2385.9197-2.0087.0654-.5225.1211-1.0459.167-1.5684C10.0444 4.459 9.6377 3.9736 9.0874 3.9258zM14.9136 20.1006c.0293.0029.0586.0039.0874.0039.5132 0 .9502-.3926.9951-.9131.0444-.5098.0981-1.0186.1621-1.5283.0034-.0269.0181-.049.0226-.0754l3.1122 3.1125c.1953.1953.4512.293.707.293s.5117-.0977.707-.293c.3906-.3906.3906-1.0234 0-1.4141l-3.1115-3.1119c.0267-.0046.0492-.0195.0764-.0228.4819-.0605.9648-.1123 1.4482-.1553.5503-.0488.9565-.5342.9077-1.084-.0483-.5498-.5166-.9541-1.0845-.9082-.5078.0449-1.0151.0986-1.521.1631-1.7007.2119-3.0366 1.5479-3.2485 3.248-.0669.5332-.1235 1.0674-.1699 1.6025C13.9561 19.5684 14.3633 20.0527 14.9136 20.1006zM20.7041 3.293c-.3906-.3906-1.0234-.3906-1.4141 0l-3.1122 3.1125c-.0045-.0264-.0192-.0486-.0226-.0754C16.0928 5.8311 16.04 5.333 15.9961 4.834c-.0483-.5498-.5317-.957-1.0835-.9082-.5503.0479-.957.5332-.9087 1.084.0459.5225.1016 1.0459.167 1.5684.2119 1.6992 1.5479 3.0352 3.2495 3.249.5317.0664 1.0645.123 1.5977.1689C19.0474 9.999 19.0762 10 19.105 10c.5137 0 .9502-.3936.9951-.9141.0479-.5498-.3599-1.0352-.9102-1.082-.5088-.0439-1.0161-.0986-1.522-.1611-.0272-.0034-.0496-.0182-.0763-.0229l3.1124-3.1129C21.0947 4.3164 21.0947 3.6836 20.7041 3.293zM3.3027 20.707C3.498 20.9023 3.7544 21 4.0103 21s.5117-.0977.707-.293l3.1143-3.1127c.0046.0268.0195.0494.0229.0766.0576.4619.1074.9248.1494 1.3877.0474.5186.4834.9092.9951.9092.0303 0 .0605-.001.0913-.0039.5498-.0498.9556-.5361.9058-1.0869-.0439-.4844-.0967-.9707-.1572-1.4541-.2129-1.7012-1.5493-3.0371-3.2495-3.249-.5332-.0674-1.0684-.123-1.6035-.1699-.5522-.0469-1.0352.3594-1.0835.9082-.0483.5508.3584 1.0361.9087 1.084.5107.0449 1.0205.0986 1.5303.1621.0269.0034.0491.0181.0756.0226L3.3032 19.293C2.9126 19.6836 2.9126 20.3164 3.3027 20.707z" fill="#7986ac" class="color000000 svgShape"></path>
  </g>
</svg>
