<svg xmlns="http://www.w3.org/2000/svg" enable-background="new 0 0 24 24" viewBox="0 0 24 24" id="maximize">
  <g id="_icons" fill="#7986ac" class="color000000 svgShape">
    <path d="M8.3286 4.9961c.5503-.0479.957-.5322.9092-1.083-.0479-.5498-.5239-.9678-1.083-.9092C7.604 3.0518 7.0537 3.1094 6.5049 3.1787 5.7133 3.2776 5.0067 3.6229 4.4423 4.1239 4.3766 4.1642 4.3064 4.1951 4.2495 4.252 4.1927 4.3088 4.162 4.3788 4.1217 4.4444 3.6204 5.0089 3.275 5.7155 3.1763 6.5068c-.0674.54-.125 1.0791-.1724 1.6211-.0483.5498.3584 1.0352.9087 1.083C3.9424 9.2139 3.9717 9.2148 4.001 9.2148c.5132 0 .9497-.3926.9951-.9131.0454-.5166.1001-1.0322.1646-1.5469.0061-.0487.0312-.0895.041-.1369L8.4575 9.873c.1953.1953.4512.293.707.293s.5117-.0977.707-.293c.3906-.3906.3906-1.0234 0-1.4141L6.6161 5.2042c.0475-.0098.0885-.035.1373-.0411C7.2773 5.0977 7.8032 5.042 8.3286 4.9961zM14.125 9.873c.1953.1953.4512.293.707.293s.5117-.0977.707-.293l3.2562-3.2554c.0098.0475.035.0884.0411.1372.0645.5146.1191 1.0303.1646 1.5469.0454.5205.4819.9131.9951.9131.0293 0 .0586-.001.0884-.0039.5503-.0479.957-.5332.9087-1.083-.0474-.542-.105-1.0811-.1724-1.6211-.2173-1.7412-1.5859-3.1104-3.3281-3.3281-.5493-.0693-1.0996-.127-1.6504-.1748-.561-.0596-1.0352.3594-1.083.9092-.0479.5508.3589 1.0352.9092 1.083.5254.0459 1.0513.1016 1.5752.167.0488.0061.0896.0313.137.0411L14.125 8.459C13.7344 8.8496 13.7344 9.4824 14.125 9.873zM9.8716 14.126c-.3906-.3906-1.0234-.3906-1.4141 0l-3.2557 3.2557C5.192 17.334 5.1667 17.293 5.1606 17.2441c-.0596-.4775-.1108-.9561-.1543-1.4346-.0498-.5498-.5342-.9531-1.0864-.9062-.5498.0498-.9556.5361-.9058 1.0859.0454.502.0996 1.0039.1621 1.5029.2178 1.7432 1.5864 3.1113 3.3286 3.3281.5508.0693 1.103.1279 1.6558.1758C8.1899 20.999 8.2192 21 8.248 21c.5132 0 .9502-.3926.9951-.9131.0479-.5508-.3594-1.0352-.9097-1.083-.5273-.0459-1.0542-.1025-1.5811-.168-.0484-.006-.0889-.0311-.136-.0407L9.8716 15.54C10.2622 15.1494 10.2622 14.5166 9.8716 14.126zM14.125 15.54l3.2557 3.2548c-.0476.0098-.0886.035-.1375.0411-.4995.0635-.999.1162-1.4995.1611-.5498.0498-.9561.5352-.9067 1.085.0469.5205.4829.9111.9951.9111.0298 0 .0601-.001.0903-.0039.5239-.0469 1.0479-.1035 1.5693-.1689 1.7427-.2168 3.1113-1.5859 3.3291-3.3281.0688-.5508.1274-1.1025.1753-1.6543.0479-.5508-.3594-1.0352-.9097-1.083-.5518-.0518-1.0352.3594-1.0825.9092-.0459.5283-.1016 1.0547-.1675 1.5801-.0061.0488-.0313.0897-.0411.1372l-3.2562-3.2554c-.3906-.3906-1.0234-.3906-1.4141 0S13.7344 15.1494 14.125 15.54z" fill="#7986ac" class="color000000 svgShape"></path>
  </g>
</svg>
