<svg xmlns="http://www.w3.org/2000/svg" viewBox="0 0 32 32" id="Edit">
  <g transform="translate(-108 -52)" fill="#7986ac" class="color000000 svgShape">
    <path fill-rule="evenodd" d="M124.47266 58.84375l-8.07032 13.976562a1.0001 1.0001 0 00-.13281.439454l-.26758 4.464843a1.0001 1.0001 0 00.0215.13086A1 1 0 00116 78a1 1 0 001 1h8.58594l-1.29297 1.292969A1.0001 1.0001 0 00125 82h6a1 1 0 001-1 1 1 0 00-1-1h-3.58594l1.29297-1.292969A1.0001 1.0001 0 00128 77h-7.99805l1.28125-.845703a1.0001 1.0001 0 00.31446-.333985l7.92968-13.734374zM129.08398 54.003906c-.29053-.0071-.58051.0288-.85937.103516-.74363.199255-1.41102.68027-1.82227 1.392578l-.92968 1.609375 5.05468 3.242187L131.59766 58.5c.82251-1.424615.32696-3.275156-1.09766-4.097656-.44519-.257031-.93179-.386644-1.41602-.398438z" color="#000" style="-inkscape-stroke:none" fill="#7986ac" class="color000000 svgShape"></path>
  </g>
</svg>
