<svg xmlns="http://www.w3.org/2000/svg" enable-background="new 0 0 32 32" viewBox="0 0 32 32" id="paper">
  <path d="M27.8800049,8.9799805l-7.0200195-6.4299927V7.539978c0,0.789978,0.6500244,1.4400024,1.4500122,1.4400024H27.8800049z" fill="#7986ac" class="color000000 svgShape"></path>
  <path d="M6.9500122,2C5.0499878,2,3.5,3.5499878,3.5,5.4500122v21.0999756C3.5,28.4500122,5.0499878,30,6.9500122,30h14.8900146
	c-0.1000366-0.2800293-0.1600342-0.5900269-0.1700439-0.9000244c-1.6099854-0.0499878-2.8999634-1.3699951-2.8999634-2.9899902
	s1.289978-2.9299927,2.8999634-2.9899902c0.0200195-0.4199829,0.1199951-0.8099976,0.2800293-1.1699829
	c-0.1900024,0.1799927-0.4299927,0.289978-0.710022,0.289978H10.7600098c-0.5499878,0-1-0.4500122-1-1s0.4500122-1,1-1h10.4799805
	c0.5499878,0,1,0.4500122,1,1c0,0.0999756-0.0200195,0.2000122-0.0499878,0.289978
	c0.539978-0.789978,1.4400024-1.3099976,2.4699707-1.3099976c1.6300049,0,2.9400024,1.2900391,2.9900513,2.9000244
	c0.2999878,0.0100098,0.5799561,0.0599976,0.8499756,0.1499634v-12.289978h-6.1900024
	c-1.9000244,0-3.4500122-1.539978-3.4500122-3.4400024V2H6.9500122z M12.9299927,17h-2.1699829c-0.5499878,0-1-0.4500122-1-1
	s0.4500122-1,1-1h2.1699829c0.5499878,0,1,0.4500122,1,1S13.4799805,17,12.9299927,17z M10.7600098,11.7600098
	c-0.5499878,0-1-0.4500122-1-1c0-0.5500488,0.4500122-1,1-1H16c0.5499878,0,1,0.4499512,1,1c0,0.5499878-0.4500122,1-1,1H10.7600098
	z M21.2399902,15c0.5499878,0,1,0.4500122,1,1s-0.4500122,1-1,1h-4.1699829c-0.5499878,0-1-0.4500122-1-1s0.4500122-1,1-1
	H21.2399902z" fill="#7986ac" class="color000000 svgShape"></path>
  <path d="M24.6630859 30c.5522461 0 1-.4472656 1-1v-1.8886719h1.8886719c.5522461 0 1-.4472656 1-1s-.4477539-1-1-1h-1.8886719v-1.8886719c0-.5527344-.4477539-1-1-1s-1 .4472656-1 1v1.8886719h-1.8891602c-.5522461 0-1 .4472656-1 1s.4477539 1 1 1h1.8891602V29C23.6630859 29.5527344 24.1108398 30 24.6630859 30zM22.1900024 21.5299683c-.0900269.1300049-.1699829.2700195-.2399902.4200439C22.0599976 21.8299561 22.1500244 21.6900024 22.1900024 21.5299683z" fill="#7986ac" class="color000000 svgShape"></path>
</svg>
