<svg id="SvgjsSvg1001" width="288" height="288" xmlns="http://www.w3.org/2000/svg" version="1.1" xmlns:xlink="http://www.w3.org/1999/xlink" xmlns:svgjs="http://svgjs.com/svgjs"><defs id="SvgjsDefs1002"></defs><g id="SvgjsG1008"><svg xmlns="http://www.w3.org/2000/svg" viewBox="0 0 512 512" width="288" height="288"><linearGradient id="a" x1="44.075" x2="420.05" y1="46.175" y2="422.15" gradientTransform="matrix(1 0 0 -1 0 514)" gradientUnits="userSpaceOnUse"><stop offset="0" stop-color="#7986ac" class="stopColor332c81 svgShape"></stop><stop offset="1" stop-color="#7986ac" class="stopColore21d73 svgShape"></stop></linearGradient><path fill="url(#a)" d="M368.5 431h-225v-26.1h-75v77.6c0 13 10.4 23.4 23.4 23.4H420c13 0 23.4-10.5 23.4-23.4v-77.6h-75V431h.1zm68.1-322.5L341 12.8C336.6 8.4 330.7 6 324.4 6H91.9c-13 0-23.4 10.5-23.4 23.4V188h75V81h143.8v57.8c0 12.9 10.5 23.4 23.4 23.4h57.8V188h75v-63c0-6.1-2.5-12.1-6.9-16.5z"></path><linearGradient id="b" x1="64.369" x2="440.344" y1="25.881" y2="401.856" gradientTransform="matrix(1 0 0 -1 0 514)" gradientUnits="userSpaceOnUse"><stop offset="0" stop-color="#7986ac" class="stopColor332c81 svgShape"></stop><stop offset="1" stop-color="#7986ac" class="stopColore21d73 svgShape"></stop></linearGradient><path fill="url(#b)" d="M281.2 329.9h-50.5c-12.9 0-23.4-10.5-23.4-23.4v-20c0-12.9 10.5-23.4 23.4-23.4h50.5c12.9 0 23.4 10.5 23.4 23.4v20c.1 12.9-10.4 23.4-23.4 23.4z"></path><linearGradient id="c" x1="154.95" x2="530.925" y1="-64.7" y2="311.275" gradientTransform="matrix(1 0 0 -1 0 514)" gradientUnits="userSpaceOnUse"><stop offset="0" stop-color="#7986ac" class="stopColor332c81 svgShape"></stop><stop offset="1" stop-color="#7986ac" class="stopColore21d73 svgShape"></stop></linearGradient><path fill="url(#c)" d="M482.4 329.9h-90.5c-12.9 0-23.4-10.5-23.4-23.4v-20c0-12.9 10.5-23.4 23.4-23.4h90.5c12.9 0 23.4 10.5 23.4 23.4v20c0 12.9-10.5 23.4-23.4 23.4z"></path><linearGradient id="d" x1="-26.2" x2="349.775" y1="116.45" y2="492.425" gradientTransform="matrix(1 0 0 -1 0 514)" gradientUnits="userSpaceOnUse"><stop offset="0" stop-color="#7986ac" class="stopColor332c81 svgShape"></stop><stop offset="1" stop-color="#7986ac" class="stopColore21d73 svgShape"></stop></linearGradient><path fill="url(#d)" d="M120.1 329.9H29.6c-12.9 0-23.4-10.5-23.4-23.4v-20c0-12.9 10.5-23.4 23.4-23.4h90.5c12.9 0 23.4 10.5 23.4 23.4v20c0 12.9-10.5 23.4-23.4 23.4z"></path></svg></g></svg>