<svg xmlns="http://www.w3.org/2000/svg" enable-background="new 0 0 60 60" viewBox="0 0 60 60" id="Settings">
  <path id="Captions" fill="none" d="M50,60H10C4.477,60,0,55.523,0,50V10C0,4.477,4.477,0,10,0h40c5.523,0,10,4.477,10,10v40
		C60,55.523,55.523,60,50,60z" class="svgShape"></path>
  <g id="Icons" fill="none" class="svgShape">
    <path fill="#b5bfde" d="M36.863,48.766l3.405,3.019l3.464-2l-0.909-4.443c0.912-0.763,1.755-1.606,2.518-2.519l4.443,0.909l2-3.464
		l-3.019-3.405c0.403-1.101,0.713-2.243,0.918-3.425L54,32v-4l-4.316-1.439c-0.205-1.182-0.516-2.324-0.918-3.425l3.019-3.405
		l-2-3.464l-4.443,0.909c-0.763-0.912-1.606-1.755-2.518-2.519l0.909-4.443l-3.464-2l-3.405,3.019
		c-1.101-0.403-2.243-0.713-3.425-0.918L32,6h-1l-1.439,4.316c-1.182,0.205-2.324,0.516-3.425,0.918l-0.744-0.66
		c-0.768,0.182-1.524,0.392-2.256,0.66l-2.222-1.97l-1.647,0.951l0.909,4.443c-0.912,0.763-1.755,1.606-2.518,2.519l-2.527-0.517
		c-0.156,0.174-0.323,0.338-0.473,0.517l-1.76-0.36l-1.683,2.915l3.019,3.405c-0.403,1.101-0.713,2.243-0.918,3.425L9,28v4
		l4.316,1.439c0.205,1.182,0.516,2.324,0.918,3.425l-3.019,3.405l1.683,2.915l1.76-0.36c0.15,0.179,0.317,0.343,0.473,0.517
		l2.527-0.517c0.763,0.912,1.606,1.755,2.518,2.519l-0.909,4.443l1.647,0.951l2.222-1.97c0.732,0.268,1.488,0.478,2.256,0.66
		l0.744-0.66c1.101,0.403,2.243,0.713,3.425,0.918L31,54h1l1.439-4.316C34.62,49.479,35.763,49.168,36.863,48.766z M32,16.159
		c6.782,0.973,12,6.79,12,13.841c0,1.836-0.363,3.586-1.006,5.193L32,28.845V16.159z M17.006,35.193C16.363,33.586,16,31.836,16,30
		c0-7.051,5.218-12.868,12-13.841v12.686L17.006,35.193z M30,44c-4.462,0-8.427-2.094-10.99-5.345L30,32.309l10.99,6.345
		C38.427,41.906,34.462,44,30,44z" class="colorc3b5de svgShape"></path>
    <path fill="#7986ac" d="M32,55h-4c-0.431,0-0.812-0.275-0.948-0.684l-1.253-3.76c-0.82-0.167-1.636-0.386-2.438-0.653l-2.966,2.63
		c-0.32,0.286-0.789,0.333-1.163,0.118l-3.465-2c-0.373-0.216-0.566-0.645-0.479-1.066l0.791-3.869
		c-0.634-0.562-1.234-1.163-1.795-1.796l-3.868,0.792C9.998,44.8,9.565,44.604,9.35,44.232l-2-3.465
		c-0.215-0.373-0.168-0.842,0.118-1.163l2.629-2.966c-0.268-0.802-0.486-1.617-0.653-2.438l-3.76-1.253C5.275,32.812,5,32.431,5,32
		v-4c0-0.431,0.275-0.812,0.684-0.948l3.76-1.253c0.167-0.82,0.386-1.636,0.653-2.438l-2.629-2.966
		c-0.286-0.321-0.333-0.79-0.118-1.163l2-3.465c0.215-0.373,0.647-0.566,1.066-0.479l3.868,0.792
		c0.561-0.633,1.161-1.233,1.795-1.796l-0.791-3.869c-0.087-0.422,0.106-0.851,0.479-1.066l3.465-2
		c0.374-0.215,0.841-0.167,1.163,0.118l2.966,2.63c0.802-0.268,1.617-0.486,2.438-0.653l1.253-3.76C27.188,5.275,27.569,5,28,5h4
		c0.431,0,0.812,0.275,0.948,0.684l1.253,3.76c0.82,0.167,1.636,0.386,2.438,0.653l2.966-2.63c0.32-0.285,0.789-0.333,1.163-0.118
		l3.465,2c0.373,0.216,0.566,0.645,0.479,1.066l-0.791,3.869c0.634,0.562,1.234,1.163,1.795,1.796l3.868-0.792
		c0.421-0.085,0.851,0.107,1.066,0.479l2,3.465c0.215,0.373,0.168,0.842-0.118,1.163l-2.629,2.966
		c0.268,0.802,0.486,1.617,0.653,2.438l3.76,1.253C54.725,27.188,55,27.569,55,28v4c0,0.431-0.275,0.812-0.684,0.948l-3.76,1.253
		c-0.167,0.82-0.386,1.636-0.653,2.438l2.629,2.966c0.286,0.321,0.333,0.79,0.118,1.163l-2,3.465
		c-0.215,0.372-0.647,0.566-1.066,0.479l-3.868-0.792c-0.561,0.633-1.161,1.233-1.795,1.796l0.791,3.869
		c0.087,0.422-0.106,0.851-0.479,1.066l-3.465,2c-0.374,0.215-0.841,0.168-1.163-0.118l-2.966-2.63
		c-0.802,0.268-1.617,0.486-2.438,0.653l-1.253,3.76C32.812,54.725,32.431,55,32,55z M28.721,53h2.559l1.211-3.633
		c0.116-0.349,0.415-0.605,0.777-0.669c1.096-0.19,2.19-0.483,3.252-0.872c0.347-0.126,0.731-0.053,1.007,0.191l2.865,2.541
		l2.217-1.279l-0.765-3.737c-0.074-0.359,0.056-0.731,0.338-0.967c0.866-0.726,1.671-1.531,2.392-2.394
		c0.236-0.282,0.608-0.412,0.968-0.339l3.737,0.766l1.279-2.217l-2.54-2.865c-0.244-0.274-0.317-0.661-0.191-1.007
		c0.389-1.062,0.682-2.156,0.872-3.252c0.063-0.362,0.32-0.661,0.669-0.777L53,31.279v-2.559l-3.633-1.211
		c-0.349-0.116-0.605-0.415-0.669-0.777c-0.19-1.096-0.483-2.19-0.872-3.252c-0.126-0.346-0.053-0.732,0.191-1.007l2.54-2.865
		l-1.279-2.217l-3.737,0.766c-0.359,0.076-0.731-0.056-0.968-0.339c-0.721-0.862-1.525-1.668-2.392-2.394
		c-0.282-0.235-0.412-0.607-0.338-0.967l0.765-3.737l-2.217-1.279l-2.865,2.541c-0.274,0.245-0.659,0.319-1.007,0.191
		c-1.062-0.389-2.156-0.682-3.252-0.872c-0.362-0.063-0.661-0.32-0.777-0.669L31.279,7h-2.559l-1.211,3.633
		c-0.116,0.349-0.415,0.605-0.777,0.669c-1.096,0.19-2.19,0.483-3.252,0.872c-0.347,0.127-0.732,0.054-1.007-0.191l-2.865-2.541
		l-2.217,1.279l0.765,3.737c0.074,0.359-0.056,0.731-0.338,0.967c-0.866,0.726-1.671,1.531-2.392,2.394
		c-0.236,0.283-0.607,0.415-0.968,0.339l-3.737-0.766l-1.279,2.217l2.54,2.865c0.244,0.274,0.317,0.661,0.191,1.007
		c-0.389,1.062-0.682,2.156-0.872,3.252c-0.063,0.362-0.32,0.661-0.669,0.777L7,28.721v2.559l3.633,1.211
		c0.349,0.116,0.605,0.415,0.669,0.777c0.19,1.096,0.483,2.19,0.872,3.252c0.126,0.346,0.053,0.732-0.191,1.007l-2.54,2.865
		l1.279,2.217l3.737-0.766c0.36-0.073,0.731,0.057,0.968,0.339c0.721,0.862,1.525,1.668,2.392,2.394
		c0.282,0.235,0.412,0.607,0.338,0.967l-0.765,3.737l2.217,1.279l2.865-2.541c0.274-0.243,0.661-0.316,1.007-0.191
		c1.062,0.389,2.156,0.682,3.252,0.872c0.362,0.063,0.661,0.32,0.777,0.669L28.721,53z M54,32h0.01H54z" class="color827399 svgShape"></path>
    <path fill="#7986ac" d="M42.994 36.192c-.174 0-.347-.045-.5-.134L31.5 29.712c-.31-.179-.5-.509-.5-.866V16.159c0-.29.126-.565.345-.756.22-.189.512-.277.797-.234C39.473 16.221 45 22.597 45 30c0 1.904-.362 3.776-1.077 5.563-.108.27-.327.479-.602.574C43.215 36.174 43.104 36.192 42.994 36.192zM33 28.269l9.45 5.455C42.815 32.512 43 31.264 43 30c0-6.025-4.225-11.265-10-12.634V28.269zM17.006 36.192c-.11 0-.221-.019-.327-.055-.274-.096-.493-.305-.602-.574C15.362 33.776 15 31.904 15 30c0-3.387 1.104-6.583 3.192-9.241.341-.435.97-.512 1.403-.169.435.341.511.97.169 1.403C17.956 24.297 17 27.065 17 30c0 1.264.185 2.512.55 3.724L27 28.269V17.366c-1.632.388-3.189 1.093-4.558 2.07-.449.321-1.073.217-1.395-.232s-.217-1.073.232-1.395c1.943-1.389 4.218-2.302 6.578-2.641.285-.043.577.045.797.234C28.874 15.594 29 15.869 29 16.159v12.687c0 .357-.19.688-.5.866l-10.994 6.347C17.353 36.147 17.18 36.192 17.006 36.192zM30 45c-4.614 0-8.906-2.087-11.775-5.727-.18-.228-.252-.522-.197-.808s.231-.532.482-.678l10.99-6.345c.309-.178.691-.178 1 0l10.99 6.345c.251.146.428.393.482.678s-.018.58-.197.808C38.906 42.913 34.614 45 30 45zM20.555 38.917C23.009 41.525 26.391 43 30 43s6.991-1.475 9.445-4.083L30 33.464 20.555 38.917z" class="color827399 svgShape"></path>
  </g>
</svg>
