<svg xmlns="http://www.w3.org/2000/svg" enable-background="new 0 0 64 64" viewBox="0 0 64 64" id="Measure">
  <path d="M27.9 51.1H14.1C8 51.1 3 46.1 3 40c0-.6-.4-1-1-1s-1 .4-1 1c0 7.2 5.9 13.1 13.1 13.1h13.8c.6 0 1-.4 1-1S28.4 51.1 27.9 51.1zM34 51.1h-2.1c-.6 0-1 .4-1 1s.4 1 1 1H34c.6 0 1-.4 1-1S34.6 51.1 34 51.1zM62 43.1H45.2c-.6 0-1 .4-1 1 0 .5.4.9.8 1v1c0 .6.4 1 1 1s1-.4 1-1v-1h2v1c0 .6.4 1 1 1s1-.4 1-1v-1h2v1c0 .6.4 1 1 1s1-.4 1-1v-1h2v1c0 .6.4 1 1 1s1-.4 1-1v-1h2v4H45.2c-.6 0-1 .4-1 1s.4 1 1 1H61v1c0 .6.4 1 1 1s1-.4 1-1v-8C63 43.5 62.6 43.1 62 43.1z" fill="#7986ac" class="color000000 svgShape"></path>
  <path d="M47,36v-6c0-1.7-1.3-3-3-3h-1v-3c0-7.2-5.9-13.1-13.1-13.1H14.1C6.9,10.9,1,16.8,1,24v11.8c0,0.6,0.4,1,1,1s1-0.4,1-1V33h3
	c0.6,0,1-0.4,1-1v-6.9c0-2.9,1.6-5.6,4.1-7c0.5-0.3,0.7-0.9,0.4-1.4c-0.3-0.5-0.9-0.7-1.4-0.4C7,18.1,5,21.5,5,25.1V31H3v-7
	c0-6.1,5-11.1,11.1-11.1H21V15h-5.9c-0.6,0-1,0.4-1,1s0.4,1,1,1H22c0.6,0,1-0.4,1-1v-3.1h6.9C36,12.9,41,17.9,41,24v27.1h-3
	c-0.6,0-1,0.4-1,1s0.4,1,1,1h4c0.6,0,1-0.4,1-1V39h1C45.7,39,47,37.7,47,36z M45,36c0,0.6-0.4,1-1,1h-1v-8h1c0.6,0,1,0.4,1,1V36z" fill="#7986ac" class="color000000 svgShape"></path>
  <path d="M22,19c-7.2,0-13,5.8-13,13c0,7.2,5.8,13,13,13c0.6,0,1-0.4,1-1s-0.4-1-1-1c-6.1,0-11-4.9-11-11s4.9-11,11-11s11,4.9,11,11
	c0,4.7-3,8.8-7.3,10.4c-0.5,0.2-0.8,0.8-0.6,1.3c0.2,0.5,0.8,0.8,1.3,0.6C31.5,42.4,35,37.5,35,32C35,24.8,29.2,19,22,19z" fill="#7986ac" class="color000000 svgShape"></path>
  <path d="M22,31c0.6,0,1-0.4,1-1s-0.4-1-1-1c-1.7,0-3,1.3-3,3s1.3,3,3,3s3-1.3,3-3c0-0.6-0.4-1-1-1s-1,0.4-1,1c0,0.6-0.4,1-1,1
	s-1-0.4-1-1C21,31.4,21.4,31,22,31z" fill="#7986ac" class="color000000 svgShape"></path>
  <circle cx="8" cy="46" r="1" fill="#7986ac" class="color000000 svgShape"></circle>
  <circle cx="36" cy="18" r="1" fill="#7986ac" class="color000000 svgShape"></circle>
</svg>
